# Wavefront Obj file
# 
# verts: 84 uv-s: 108
mtllib ObjectFish.mtl

g Sphere001

v -10.091900 -15.035700 -27.033300
v -10.091900 9.687000 -22.741899
v 15.155899 5.762400 -22.741800
v 32.387699 -4.765500 -22.741800
v 36.132500 -18.554100 -22.741800
v 25.201401 -31.225599 -22.741800
v 3.065001 -38.756901 -22.741800
v -23.248699 -38.756901 -22.741899
v -45.385101 -31.225599 -22.741899
v -56.316200 -18.554100 -22.741899
v -52.571400 -4.765500 -22.741899
v -35.339600 5.762400 -22.741899
v -10.091900 30.141499 -11.230000
v 32.387699 23.538300 -11.230000
v 61.380203 9.467500 -11.230000
v 67.680901 -25.166599 -11.230000
v 49.289299 -53.710098 -11.230000
v 12.044600 -54.946800 -11.230000
v -32.228298 -54.946800 -11.230000
v -69.473000 -46.496899 -11.230000
v -87.864700 -20.369900 -11.230000
v -81.564003 14.473999 -11.230000
v -52.571400 30.961201 -11.230000
v -4.945700 46.707901 -10.008200
v -4.945700 50.374802 5.069100
v 41.278599 43.189400 5.069100
v 37.533798 40.104599 -10.008200
v 36.132500 26.623100 3.847200
v 67.680901 10.990800 3.847300
v 71.684097 10.251800 -10.820100
v 77.984802 11.775101 4.257200
v 84.840897 -13.469500 4.257200
v 77.984802 -12.947600 -10.820100
v 85.738602 -28.430500 -10.466500
v 92.594803 -28.952400 4.610700
v 72.581802 -59.375301 4.610700
v 67.347000 -56.973900 -10.466600
v 54.524101 -56.111401 3.847300
v 13.996000 -58.465199 3.847200
v -34.179798 -58.465199 3.847200
v -74.707802 -48.898300 3.847200
v -98.310699 -53.469002 -9.981500
v -103.545502 -55.870300 5.095700
v -123.558403 -32.670898 5.095700
v -116.702301 -32.149101 -9.981500
v -119.327904 -18.342699 -9.964000
v -126.184097 -18.864500 5.113300
v -119.327904 10.601600 5.113300
v -113.027298 9.078300 -9.964000
v -101.992302 27.318399 -10.018000
v -108.292999 28.841702 5.059200
v -76.744598 43.309299 5.059300
v -72.999702 40.224499 -10.018000
v -47.425301 47.527599 -10.008200
v -51.170101 50.612400 5.069000
v -4.945700 39.671001 18.924900
v 30.347500 34.184898 18.924900
v 25.201401 17.618500 17.702999
v 49.289299 6.544300 17.703100
v 59.593102 7.328600 18.113001
v 64.827904 -11.946200 18.113001
v 72.581802 -27.429100 18.466499
v 57.301498 -52.365799 18.466499
v 39.243801 -49.101898 17.703100
v 8.299700 -48.195099 17.702999
v -28.483500 -48.195099 17.702999
v -59.427502 -41.888802 17.702999
v -88.265198 -48.860802 18.951500
v -103.545502 -31.147600 18.951500
v -106.171097 -17.341200 18.969101
v -100.936302 6.155100 18.969101
v -89.901299 24.395201 18.915100
v -65.813499 34.304798 18.915100
v -40.238998 41.607800 18.924801
v -10.091900 -15.035700 27.033300
v -10.091900 23.104700 17.702999
v 54.524101 -24.165199 17.703100
v -74.707802 -19.368500 17.702999
v -69.473000 11.550800 17.702999
v -45.385201 25.041500 17.702999
v -94.720802 -20.891800 3.847200
v -87.864700 15.997299 3.847200
v -56.316200 34.046001 3.847200
v 74.537003 -25.688499 3.847300
# 84 positions

vt 0.752617 0.707426
vt 0.661912 0.706129
vt 0.678066 0.614744
vt 0.717868 0.552992
vt 0.768315 0.540571
vt 0.814449 0.580431
vt 0.840387 0.660993
vt 0.838611 0.756484
vt 0.810032 0.836422
vt 0.763424 0.875180
vt 0.713620 0.860824
vt 0.675286 0.797983
vt 0.577417 0.704798
vt 0.606961 0.546420
vt 0.665495 0.441142
vt 0.794902 0.420359
vt 0.900968 0.489090
vt 0.911536 0.627739
vt 0.908246 0.793287
vt 0.869300 0.930469
vt 0.769519 0.996079
vt 0.640385 0.970560
vt 0.577417 0.863662
vt 0.463600 0.371715
vt 0.523800 0.372837
vt 0.491604 0.193187
vt 0.447807 0.226733
vt 0.388526 0.215413
vt 0.423303 0.164904
vt 0.335420 0.071684
vt 0.302614 0.126147
vt 0.287163 0.094179
vt 0.306254 0.040149
vt 0.201783 0.023406
vt 0.207261 0.082178
vt 0.100475 0.093353
vt 0.063357 0.051747
vt 0.010000 0.190751
vt 0.067477 0.196808
vt 0.101980 0.248195
vt 0.039747 0.258835
vt 0.089817 0.393297
vt 0.145879 0.380915
vt 0.092806 0.568201
vt 0.150499 0.557588
vt 0.057170 0.712641
vt 0.122258 0.709260
vt 0.071590 0.802956
vt 0.013056 0.825568
vt 0.071308 0.933592
vt 0.103018 0.884016
vt 0.267820 0.931967
vt 0.279110 0.990000
vt 0.384292 0.937348
vt 0.342648 0.888964
vt 0.435931 0.761009
vt 0.487046 0.792988
vt 0.480678 0.665016
vt 0.414601 0.656074
vt 0.464993 0.521819
vt 0.515467 0.549784
vt 0.463600 0.371715
vt 0.447807 0.226733
vt 0.388526 0.215413
vt 0.302614 0.126147
vt 0.287163 0.094179
vt 0.207261 0.082178
vt 0.100475 0.093353
vt 0.067477 0.196808
vt 0.101980 0.248195
vt 0.145879 0.380915
vt 0.150499 0.557588
vt 0.122258 0.709260
vt 0.071590 0.802956
vt 0.103018 0.884016
vt 0.267820 0.931967
vt 0.342648 0.888964
vt 0.435931 0.761009
vt 0.414601 0.656074
vt 0.464993 0.521819
vt 0.752351 0.253226
vt 0.868629 0.386492
vt 0.738121 0.394363
vt 0.959723 0.353652
vt 0.990000 0.243912
vt 0.944100 0.147457
vt 0.831706 0.136617
vt 0.697742 0.123192
vt 0.583151 0.136552
vt 0.519747 0.213143
vt 0.527223 0.327513
vt 0.609064 0.386492
vt 0.204358 0.832416
vt 0.204358 0.832416
vt 0.187569 0.902686
vt 0.354670 0.764120
vt 0.354670 0.764120
vt 0.399543 0.818403
vt 0.335708 0.636683
vt 0.335708 0.636683
vt 0.418023 0.562321
vt 0.469743 0.595875
vt 0.418023 0.562321
vt 0.399543 0.384767
vt 0.399543 0.384767
vt 0.160214 0.115376
vt 0.160214 0.115376
vt 0.143589 0.049775
# 108 texture coordinates

vn 0.000001 -0.000001 -1.000000
vn 0.014105 0.323072 -0.946269
vn 0.094097 0.290952 -0.952099
vn 0.180106 0.148373 -0.972393
vn 0.205163 -0.045157 -0.977686
vn 0.124377 -0.226807 -0.965965
vn 0.030611 -0.350594 -0.936027
vn -0.046872 -0.357719 -0.932652
vn -0.147639 -0.242077 -0.958959
vn -0.209863 -0.054115 -0.976232
vn -0.171832 0.130099 -0.976498
vn -0.074565 0.261372 -0.962354
vn 0.017381 0.275213 -0.961226
vn 0.420496 0.385206 -0.821462
vn 0.229820 0.570862 -0.788225
vn 0.351303 0.052402 -0.934794
vn 0.063794 -0.646364 -0.760358
vn 0.031000 -0.815166 -0.578397
vn -0.095098 -0.809404 -0.579501
vn -0.112888 -0.648907 -0.752446
vn -0.275676 -0.062350 -0.959227
vn -0.292085 0.129516 -0.947582
vn -0.152759 0.439946 -0.884936
vn 0.053900 0.646963 -0.760614
vn 0.084038 0.975957 0.201110
vn 0.835562 0.478207 0.270470
vn 0.568836 0.386989 -0.725717
vn 0.905841 0.345183 0.245563
vn 0.164382 0.975408 0.146822
vn 0.404117 0.592045 -0.697260
vn 0.472450 0.858823 0.198024
vn 0.932004 -0.223302 0.285492
vn 0.678872 -0.144069 -0.719984
vn 0.559485 0.251925 -0.789627
vn 0.805392 0.539304 0.245958
vn 0.319419 -0.926399 0.199390
vn 0.293770 -0.688475 -0.663100
vn -0.077318 -0.987678 0.136070
vn 0.016968 -0.981263 0.191926
vn -0.108693 -0.972428 0.206323
vn 0.021467 -0.989866 0.140370
vn -0.233039 -0.729850 -0.642660
vn -0.237208 -0.954682 0.179762
vn -0.888809 0.340572 0.306641
vn -0.597539 0.145727 -0.788487
vn -0.517432 -0.403271 -0.754743
vn -0.678072 -0.698701 0.228114
vn -0.611266 0.753850 0.240965
vn -0.491319 0.525466 -0.694616
vn -0.563260 0.058770 -0.824187
vn -0.937995 -0.032312 0.345139
vn 0.035186 0.986248 0.161480
vn -0.008064 0.806993 -0.590506
vn -0.404993 0.611818 -0.679455
vn -0.554064 0.790924 0.259716
vn 0.036893 0.417874 0.907756
vn 0.408179 0.182125 0.894551
vn 0.292502 0.168858 0.941238
vn 0.102044 0.432258 0.895958
vn 0.192985 0.478638 0.856541
vn 0.369356 -0.104642 0.923378
vn 0.310397 0.310097 0.898606
vn 0.127351 -0.518058 0.845812
vn -0.018513 -0.490450 0.871273
vn 0.002391 -0.582583 0.812767
vn -0.058619 -0.553659 0.830678
vn -0.019732 -0.472918 0.880885
vn -0.091733 -0.560897 0.822788
vn -0.339595 0.197119 0.919685
vn -0.261492 -0.380985 0.886833
vn -0.259342 0.390724 0.883219
vn -0.345941 -0.073698 0.935357
vn 0.056586 0.621684 0.781222
vn -0.276210 0.363674 0.889634
vn -0.001038 -0.009188 0.999957
vn 0.008877 0.084170 0.996412
vn 0.173843 0.100252 0.979657
vn -0.129589 -0.037250 0.990868
vn -0.158209 0.040620 0.986570
vn -0.069633 0.259182 0.963315
vn -0.892566 -0.216640 0.395466
vn -0.917201 0.153962 0.367474
vn -0.326559 0.918523 0.222878
vn 0.830209 0.490901 0.264136
# 84 normals

usemtl wire_154215229
f 1/1/1 2/2/2 3/3/3
f 1/1/1 3/3/3 4/4/4
f 1/1/1 4/4/4 5/5/5
f 1/1/1 5/5/5 6/6/6
f 1/1/1 6/6/6 7/7/7
f 1/1/1 7/7/7 8/8/8
f 1/1/1 8/8/8 9/9/9
f 1/1/1 9/9/9 10/10/10
f 1/1/1 10/10/10 11/11/11
f 1/1/1 11/11/11 12/12/12
f 1/1/1 12/12/12 2/2/2
f 2/2/2 13/13/13 14/14/14 3/3/3
f 3/3/3 14/14/14 15/15/15 4/4/4
f 4/4/4 15/15/15 16/16/16 5/5/5
f 5/5/5 16/16/16 17/17/17 6/6/6
f 6/6/6 17/17/17 18/18/18 7/7/7
f 7/7/7 18/18/18 19/19/19 8/8/8
f 8/8/8 19/19/19 20/20/20 9/9/9
f 9/9/9 20/20/20 21/21/21 10/10/10
f 10/10/10 21/21/21 22/22/22 11/11/11
f 11/11/11 22/22/22 23/23/23 12/12/12
f 12/12/12 23/23/23 13/13/13 2/2/2
f 24/24/24 25/25/25 26/26/26 27/27/27
f 14/28/14 28/29/28 29/30/29 15/31/15
f 30/32/30 31/33/31 32/34/32 33/35/33
f 34/36/34 35/37/35 36/38/36 37/39/37
f 17/40/17 38/41/38 39/42/39 18/43/18
f 18/43/18 39/42/39 40/44/40 19/45/19
f 19/45/19 40/44/40 41/46/41 20/47/20
f 42/48/42 43/49/43 44/50/44 45/51/45
f 46/52/46 47/53/47 48/54/48 49/55/49
f 50/56/50 51/57/51 52/58/52 53/59/53
f 54/60/54 55/61/55 25/25/25 24/24/24
f 25/25/25 56/62/56 57/63/57 26/26/26
f 28/29/28 58/64/58 59/65/59 29/30/29
f 31/33/31 60/66/60 61/67/61 32/34/32
f 35/37/35 62/68/62 63/69/63 36/38/36
f 38/41/38 64/70/64 65/71/65 39/42/39
f 39/42/39 65/71/65 66/72/66 40/44/40
f 40/44/40 66/72/66 67/73/67 41/46/41
f 43/49/43 68/74/68 69/75/69 44/50/44
f 47/53/47 70/76/70 71/77/71 48/54/48
f 51/57/51 72/78/72 73/79/73 52/58/52
f 55/61/55 74/80/74 56/62/56 25/25/25
f 75/81/75 58/82/58 76/83/76
f 75/81/75 59/84/59 58/82/58
f 75/81/75 77/85/77 59/84/59
f 75/81/75 64/86/64 77/85/77
f 75/81/75 65/87/65 64/86/64
f 75/81/75 66/88/66 65/87/65
f 75/81/75 67/89/67 66/88/66
f 75/81/75 78/90/78 67/89/67
f 75/81/75 79/91/79 78/90/78
f 75/81/75 80/92/80 79/91/79
f 75/81/75 76/83/76 80/92/80
f 21/93/21 20/47/20 42/48/42 45/51/45
f 20/47/20 41/46/41 43/49/43 42/48/42
f 41/46/41 67/73/67 68/74/68 43/49/43
f 67/73/67 78/94/78 69/75/69 68/74/68
f 78/94/78 81/95/81 44/50/44 69/75/69
f 81/95/81 21/93/21 45/51/45 44/50/44
f 22/96/22 21/93/21 46/52/46 49/55/49
f 21/93/21 81/95/81 47/53/47 46/52/46
f 81/95/81 78/94/78 70/76/70 47/53/47
f 78/94/78 79/97/79 71/77/71 70/76/70
f 79/97/79 82/98/82 48/54/48 71/77/71
f 82/98/82 22/96/22 49/55/49 48/54/48
f 23/99/23 22/96/22 50/56/50 53/59/53
f 22/96/22 82/98/82 51/57/51 50/56/50
f 82/98/82 79/97/79 72/78/72 51/57/51
f 79/97/79 80/100/80 73/79/73 72/78/72
f 80/101/80 83/102/83 52/58/52 73/79/73
f 83/102/83 23/103/23 53/59/53 52/58/52
f 14/28/14 13/104/13 24/24/24 27/27/27
f 13/104/13 23/103/23 54/60/54 24/24/24
f 23/103/23 83/102/83 55/61/55 54/60/54
f 83/102/83 80/101/80 74/80/74 55/61/55
f 80/101/80 76/105/76 56/62/56 74/80/74
f 76/105/76 58/64/58 57/63/57 56/62/56
f 58/64/58 28/29/28 26/26/26 57/63/57
f 28/29/28 14/28/14 27/27/27 26/26/26
f 16/106/16 15/31/15 30/32/30 33/35/33
f 15/31/15 29/30/29 31/33/31 30/32/30
f 29/30/29 59/65/59 60/66/60 31/33/31
f 59/65/59 77/107/77 61/67/61 60/66/60
f 77/107/77 84/108/84 32/34/32 61/67/61
f 84/108/84 16/106/16 33/35/33 32/34/32
f 17/40/17 16/106/16 34/36/34 37/39/37
f 16/106/16 84/108/84 35/37/35 34/36/34
f 84/108/84 77/107/77 62/68/62 35/37/35
f 77/107/77 64/70/64 63/69/63 62/68/62
f 64/70/64 38/41/38 36/38/36 63/69/63
f 38/41/38 17/40/17 37/39/37 36/38/36

# 93 faces
